<?xml version="1.0" encoding="utf-8"?>
<svg viewBox="0 0 500 500" xmlns="http://www.w3.org/2000/svg">
  <path d="M 249.947 419.107 C 289.789 369.246 380.656 248.4 380.656 180.521 C 380.656 98.197 313.865 31.405 231.54 31.405 C 149.216 31.405 82.424 98.197 82.424 180.521 C 82.424 248.4 173.292 369.246 213.134 419.107 C 222.686 430.99 240.394 430.99 249.947 419.107 Z M 231.54 130.816 C 269.804 130.816 293.718 172.238 274.586 205.374 C 265.708 220.753 249.298 230.227 231.54 230.227 C 193.277 230.227 169.363 188.806 188.494 155.669 C 197.373 140.29 213.782 130.816 231.54 130.816 Z" style="fill: rgb(225, 137, 123);"/>
  <ellipse style="fill: rgb(255, 255, 255); stroke: rgba(0, 0, 0, 0);" cx="231.811" cy="180.882" rx="70.937" ry="70.937"/>
  <text style="fill: rgb(51, 51, 51); font-family: Arial, sans-serif; font-size: 107px; font-weight: 700; text-anchor: middle; white-space: pre;" x="227.339" y="220.68">1</text>
</svg>